<svg width="9" height="11" viewBox="0 0 9 11" fill="none" xmlns="http://www.w3.org/2000/svg">
<path d="M4.76685 9.84512L4.7619 9.84604L4.72995 9.86209L4.72095 9.86392L4.71465 9.86209L4.6827 9.84604C4.6779 9.84451 4.6743 9.84528 4.6719 9.84833L4.6701 9.85292L4.66245 10.0491L4.6647 10.0583L4.6692 10.0642L4.716 10.0982L4.72275 10.1L4.72815 10.0982L4.77495 10.0642L4.78035 10.0569L4.78215 10.0491L4.7745 9.85338C4.7733 9.84848 4.77075 9.84573 4.76685 9.84512ZM4.8861 9.79332L4.88025 9.79424L4.797 9.83687L4.7925 9.84146L4.79115 9.8465L4.79925 10.0436L4.8015 10.0491L4.8051 10.0523L4.89555 10.095C4.90125 10.0965 4.9056 10.0953 4.9086 10.0913L4.9104 10.0849L4.8951 9.80341C4.8936 9.79791 4.8906 9.79455 4.8861 9.79332ZM4.56435 9.79424C4.56237 9.79301 4.56 9.79262 4.55773 9.79313C4.55547 9.79364 4.55349 9.79502 4.5522 9.79699L4.5495 9.80341L4.5342 10.0849C4.5345 10.0904 4.53705 10.094 4.54185 10.0959L4.5486 10.095L4.63905 10.0523L4.64355 10.0487L4.64535 10.0436L4.653 9.8465L4.65165 9.841L4.64715 9.83641L4.56435 9.79424Z" fill="white"/>
<path d="M4.5 0.100006C6.98535 0.100006 9 2.15236 9 4.68422C9 7.21608 6.98535 9.26843 4.5 9.26843C2.01465 9.26843 0 7.21608 0 4.68422C0 2.15236 2.01465 0.100006 4.5 0.100006ZM4.5 1.01685C3.54522 1.01685 2.62955 1.40323 1.95442 2.091C1.27928 2.77876 0.9 3.71157 0.9 4.68422C0.9 5.65687 1.27928 6.58967 1.95442 7.27744C2.62955 7.96521 3.54522 8.35159 4.5 8.35159C5.45478 8.35159 6.37045 7.96521 7.04558 7.27744C7.72072 6.58967 8.1 5.65687 8.1 4.68422C8.1 3.71157 7.72072 2.77876 7.04558 2.091C6.37045 1.40323 5.45478 1.01685 4.5 1.01685ZM4.5 1.93369C4.61022 1.93371 4.7166 1.97493 4.79897 2.04954C4.88133 2.12415 4.93395 2.22697 4.94685 2.33848L4.95 2.39211V4.49443L6.16815 5.73538C6.24886 5.81787 6.29571 5.92857 6.2992 6.04499C6.30269 6.1614 6.26255 6.27481 6.18694 6.36217C6.11132 6.44953 6.0059 6.50429 5.89209 6.51534C5.77827 6.52638 5.6646 6.49288 5.57415 6.42163L5.53185 6.38359L4.18185 5.00832C4.11191 4.93701 4.06699 4.84421 4.05405 4.74427L4.05 4.68422V2.39211C4.05 2.27053 4.09741 2.15393 4.1818 2.06796C4.26619 1.98199 4.38065 1.93369 4.5 1.93369Z" fill="white"/>
</svg>
