<svg width="16" height="17" viewBox="0 0 16 17" fill="none" xmlns="http://www.w3.org/2000/svg">
<path d="M3.33331 4.03332V13.3667C3.33331 13.5435 3.40355 13.713 3.52858 13.8381C3.6536 13.9631 3.82317 14.0333 3.99998 14.0333H5.99998V12.7H4.66665V4.69999H5.99998V3.36666H3.99998C3.82317 3.36666 3.6536 3.4369 3.52858 3.56192C3.40355 3.68694 3.33331 3.85651 3.33331 4.03332ZM12.828 3.38666L7.49465 2.05332C7.39639 2.02882 7.29384 2.02702 7.19479 2.04806C7.09574 2.0691 7.00278 2.11243 6.92297 2.17476C6.84316 2.23709 6.7786 2.31679 6.73418 2.40779C6.68977 2.4988 6.66667 2.59873 6.66665 2.69999V14.7C6.66641 14.8013 6.68934 14.9014 6.73367 14.9925C6.77801 15.0837 6.84257 15.1635 6.92245 15.2259C7.00233 15.2883 7.0954 15.3316 7.19457 15.3525C7.29373 15.3734 7.39637 15.3714 7.49465 15.3467L12.828 14.0133C12.9723 13.9773 13.1004 13.8941 13.1919 13.777C13.2835 13.6598 13.3333 13.5154 13.3333 13.3667V4.03332C13.3333 3.88462 13.2835 3.74019 13.1919 3.62302C13.1004 3.50584 12.9723 3.42265 12.828 3.38666ZM9.99998 8.82532C9.9923 8.99698 9.91871 9.15905 9.79453 9.27781C9.67034 9.39656 9.50514 9.46284 9.33331 9.46284C9.16149 9.46284 8.99628 9.39656 8.8721 9.27781C8.74792 9.15905 8.67432 8.99698 8.66665 8.82532V8.57399C8.66673 8.39718 8.73706 8.22765 8.86214 8.10268C8.98723 7.97772 9.15684 7.90757 9.33365 7.90766C9.51046 7.90775 9.67999 7.97807 9.80495 8.10316C9.92992 8.22824 10.0001 8.39785 9.99998 8.57466V8.82532Z" fill="#F97316"/>
</svg>
