<svg width="11" height="10" viewBox="0 0 11 10" fill="none" xmlns="http://www.w3.org/2000/svg">
<path d="M5.39994 5.59997C5.62085 5.59997 5.79994 5.42088 5.79994 5.19997C5.79994 4.97906 5.62085 4.79997 5.39994 4.79997C5.17903 4.79997 4.99994 4.97906 4.99994 5.19997C4.99994 5.42088 5.17903 5.59997 5.39994 5.59997Z" fill="#0C0A09"/>
<path d="M5.39994 2.79997C5.62085 2.79997 5.79994 2.62088 5.79994 2.39997C5.79994 2.17906 5.62085 1.99997 5.39994 1.99997C5.17903 1.99997 4.99994 2.17906 4.99994 2.39997C4.99994 2.62088 5.17903 2.79997 5.39994 2.79997Z" fill="#0C0A09"/>
<path d="M5.39994 8.39997C5.62085 8.39997 5.79994 8.22088 5.79994 7.99997C5.79994 7.77906 5.62085 7.59997 5.39994 7.59997C5.17903 7.59997 4.99994 7.77906 4.99994 7.99997C4.99994 8.22088 5.17903 8.39997 5.39994 8.39997Z" fill="#0C0A09"/>
<path d="M5.39994 5.59997C5.62085 5.59997 5.79994 5.42088 5.79994 5.19997C5.79994 4.97906 5.62085 4.79997 5.39994 4.79997C5.17903 4.79997 4.99994 4.97906 4.99994 5.19997C4.99994 5.42088 5.17903 5.59997 5.39994 5.59997Z" stroke="white" stroke-width="0.8" stroke-linecap="round" stroke-linejoin="round"/>
<path d="M5.39994 2.79997C5.62085 2.79997 5.79994 2.62088 5.79994 2.39997C5.79994 2.17906 5.62085 1.99997 5.39994 1.99997C5.17903 1.99997 4.99994 2.17906 4.99994 2.39997C4.99994 2.62088 5.17903 2.79997 5.39994 2.79997Z" stroke="white" stroke-width="0.8" stroke-linecap="round" stroke-linejoin="round"/>
<path d="M5.39994 8.39997C5.62085 8.39997 5.79994 8.22088 5.79994 7.99997C5.79994 7.77906 5.62085 7.59997 5.39994 7.59997C5.17903 7.59997 4.99994 7.77906 4.99994 7.99997C4.99994 8.22088 5.17903 8.39997 5.39994 8.39997Z" stroke="white" stroke-width="0.8" stroke-linecap="round" stroke-linejoin="round"/>
</svg>
